<?xml version="1.0" encoding="utf-8"?>
<!-- Generator: Adobe Illustrator 24.0.1, SVG Export Plug-In . SVG Version: 6.00 Build 0)  -->
<svg version="1.1" id="Layer_1" xmlns="http://www.w3.org/2000/svg" xmlns:xlink="http://www.w3.org/1999/xlink" x="0px" y="0px"
	 viewBox="0 0 375 89" style="enable-background:new 0 0 375 89;" xml:space="preserve">
<style type="text/css">
	.st0{fill:#070404;}
	.st1{fill:#E32526;}
</style>
<g>
	<g>
		<path class="st0" d="M190.1,21.6c-2.8,0-5.1,2.3-5.1,5.1v21.1c0,2.8,2.3,5.1,5.1,5.1c2.8,0,5.1-2.3,5.1-5.1V26.7
			C195.2,23.9,192.9,21.6,190.1,21.6z"/>
		<path class="st0" d="M310.3,21.6c-2.8,0-5.1,2.3-5.1,5.1v40.8c0,2.8,2.3,5.1,5.1,5.1c2.8,0,5.1-2.3,5.1-5.1V26.7
			C315.4,23.9,313.1,21.6,310.3,21.6z"/>
		<path class="st0" d="M297.7,24.8c-2.8,0-5.1,2.3-5.1,5.1v16.9h-9.8c-1.4,0-2.5,1.1-2.5,2.5s1.1,2.5,2.5,2.5h9.8v10.5
			c0,2.8,2.3,5.1,5.1,5.1c2.8,0,5.1-2.3,5.1-5.1V29.9C302.7,27.1,300.5,24.8,297.7,24.8z"/>
		<path class="st0" d="M177.3,42.3V29c0-2.8-2.3-5.1-5.1-5.1c-2.8,0-5.1,2.3-5.1,5.1v3.6h-13.9V29c0-2.8-2.3-5.1-5.1-5.1
			c-2.8,0-5.1,2.3-5.1,5.1v13.3c0,4.6,7.7,8.4,17.1,8.4C169.6,50.6,177.3,46.9,177.3,42.3z M153.2,42.3v-5.5h13.9v5.5
			c0,1.9-3.1,3.4-7,3.4C156.3,45.7,153.2,44.2,153.2,42.3z"/>
		<path class="st0" d="M172.3,50.9c-12.5,0-22.6,5-22.6,11.2s7.4,11.2,22.6,11.2c15.2,0,22.6-5,22.6-11.2S184.8,50.9,172.3,50.9z
			 M172.3,69.1c-5.6,0-10.1-3.1-10.1-6.9s4.5-6.9,10.1-6.9c5.6,0,10.1,3.1,10.1,6.9S177.9,69.1,172.3,69.1z"/>
		<path class="st0" d="M207.4,33.9h32.5c1.1,0,1.9,1.2,1.3,2.2l-7.4,12.8c-1.3,2.3-0.8,5.3,1.3,6.9c2.5,1.8,5.9,1,7.4-1.6l10.4-18.1
			c1.1-1.9,1-4.4-0.5-6.1c-1-1.2-2.3-1.6-3.6-1.7v0h-41.3c-1.4,0-2.6,0.9-2.9,2.3C204.3,32.3,205.6,33.9,207.4,33.9z"/>
		<path class="st0" d="M253.2,55.5c-7.2,4-13.7,4.7-24.7,4.7c-11,0-17.5-0.7-24.7-4.7c-1.2-0.7-2.8-0.2-3.5,1
			c-0.7,1.2-0.2,2.8,1,3.5c8.2,4.5,15.6,5.3,27.2,5.3c11.6,0,19-0.8,27.2-5.3c1.2-0.7,1.7-2.2,1-3.5C256,55.2,254.4,54.8,253.2,55.5
			z"/>
		<path class="st0" d="M288.2,59c-0.9-0.3-1.7,0.2-2.3,0.9c-0.8,1.1-3.4,1.9-6.3,1.9c-3.7,0-6.6-1.2-6.6-2.7V45.3h10.7
			c2.4,0,4.4-1.7,4.9-3.9h0.2v-8c0-2.8-2.3-5.1-5.1-5.1h-18.8v0c-1.2,0.2-2.1,1.2-2.1,2.4s0.9,2.2,2.1,2.4v0h13.7c0,0.1,0,0.1,0,0.2
			v7h-13.7v0c-1.2,0.2-2.1,1.2-2.1,2.4v17.4c0,3.1,6,5.5,13.4,5.5c7.4,0,13.4-2.5,13.4-5.5C289.4,59.6,288.9,59.2,288.2,59z"/>
	</g>
	<path class="st1" d="M130.6,23c0-6.6-6.4-8.8-13.1-8.8c-27.1,0.8-56.8,22.3-57.9,44.2c0,10.6,8.4,16.2,24.2,16.2
		c11.1,0,39-9.9,39-26.6c0-9.1-9.2-9.4-9.2-9.4S128.7,35.8,130.6,23z M96.8,41.9c0,0,5.4,2.1,5.4,10.6c0,11.9-12.5,20.2-17.6,20.2
		c-6.8,0-6.6-7.3-6.6-10c0-16.9,15.6-43.8,27.6-43.8c0,0,5.4,0.4,5.4,6.7C111,34.3,99.4,41.9,96.8,41.9z"/>
</g>
</svg>
