<?xml version="1.0" encoding="utf-8"?>
<!-- Generator: Adobe Illustrator 24.0.1, SVG Export Plug-In . SVG Version: 6.00 Build 0)  -->
<svg version="1.1" id="Layer_1" xmlns="http://www.w3.org/2000/svg" xmlns:xlink="http://www.w3.org/1999/xlink" x="0px" y="0px"
	 viewBox="0 0 204 119.3" style="enable-background:new 0 0 204 119.3;" xml:space="preserve">
<style type="text/css">
	.st0{fill:#F8C7BC;}
	.st1{fill:#F19290;}
	.st2{fill:#93C01E;}
</style>
<path class="st0" d="M105.6,64.7c-0.8,0-1.5-0.3-2.2-0.8c-1.1-0.9-3.4-1.2-4.2-1.3c-11.6-0.3-16.8-3.3-17-3.4
	c-0.1-0.1-17.3-9.8-13.2-25c4.2-15.5,18.2-13,18.3-13c0.7,0.1,1.4,0.2,2,0.4c0.3-1,0.7-1.8,0.8-1.9c0.1-0.1,0.1-0.2,0.2-0.3
	c2.5-2.6,5.6-4,9.2-3.9c5.8,0,11.1,3.5,14.2,6.8c5.5,5.9,6.6,18.8,2.2,25.7c-6,9.3-6.9,11.8-6.9,12.5c0.1,1.6-0.7,3.2-2.1,3.9
	C106.6,64.6,106.1,64.7,105.6,64.7z"/>
<g>
	<g>
		<g>
			<path class="st1" d="M4.1,114.8V73h15.9c4.1,0,6.9,0.8,8.6,2.5c1.7,1.7,2.5,4.2,2.5,7.5v8.6c0,7-4,10.4-12.1,10.4h-11v12.7H4.1z
				 M25.5,78c-1.2-1.2-3.2-1.8-6.1-1.8H7.9v22.7h10.5c1.9,0,3.5-0.2,4.8-0.6s2.1-1,2.7-1.9c0.6-0.8,1-1.7,1.1-2.5s0.3-2,0.3-3.3v-7
				C27.3,81.1,26.7,79.3,25.5,78z"/>
			<path class="st1" d="M56.3,108.8c-0.4,1.2-1,2.3-1.9,3.3s-1.9,2-3.4,2.7s-3.1,1.1-5,1.1c-3.8,0.1-6.9-1-9.1-3.2s-3.3-5.3-3.3-9.3
				V93.3c0-4,1-7.1,3.1-9.2c2.1-2.1,4.9-3.2,8.6-3.2c3.5,0,6.3,1,8.4,3.1s3.2,4.9,3.2,8.6v8.8H37.6v2.5c0,3.1,0.7,5.3,2.2,6.7
				s3.5,2,6.2,1.9c4.6-0.1,7-2.5,7.3-7.2H57C57,106.5,56.8,107.7,56.3,108.8z M53.1,97.9v-4.9c0-3-0.7-5.2-2.1-6.6
				c-1.4-1.4-3.3-2.1-5.6-2.1c-2.5,0-4.4,0.7-5.8,2.1c-1.4,1.4-2,3.5-2,6.2v5.3L53.1,97.9L53.1,97.9z"/>
			<path class="st1" d="M63.1,84.1c2-1.9,4.4-3,7.3-3.1c3.4-0.2,6.2,0.5,8.4,2.1v-1.5h3.9v33.2h-3.9v-2.3c-0.7,0.9-1.7,1.8-3.1,2.4
				c-1.4,0.7-2.9,1-4.5,1c-3.3,0.1-5.9-0.9-8-3.1c-2.1-2.1-3.1-4.8-3.1-8V91.6C60.2,88.6,61.2,86.1,63.1,84.1z M66.1,110.6
				c1.4,1.4,3.2,2.1,5.4,2c2.1-0.1,3.8-0.8,5.2-2.2s2.1-3,2.1-4.9V90.5c0-2.1-0.7-3.7-2.2-4.7c-1.5-1-3.2-1.5-5.3-1.5
				c-2.3,0-4.1,0.7-5.4,2.1c-1.3,1.3-1.9,3.2-1.9,5.5v13C64,107.3,64.7,109.2,66.1,110.6z"/>
			<path class="st1" d="M106.9,112.8c-1.9,1.9-4.5,3-7.8,3.1c-3.6,0.2-6.6-0.8-9-2.8s-3.6-4.8-3.6-8.3V92.4c0-3.3,1-6.1,3.1-8.2
				s4.9-3.2,8.6-3.2c3.5,0,6.3,0.9,8.1,2.8c1.9,1.9,2.9,4.5,3.1,7.9h-3.8c-0.4-4.8-2.8-7.2-7.1-7.3c-2.5-0.1-4.6,0.6-6,2
				c-1.5,1.4-2.2,3.5-2.2,6.3v12.1c0,2.7,0.8,4.7,2.5,6c1.7,1.3,3.7,1.8,6,1.7c4.5-0.3,7-2.6,7.3-7h3.7
				C109.8,108.4,108.8,110.8,106.9,112.8z"/>
			<path class="st1" d="M112.9,114.8V73h3.9v11.7c1.9-2.4,4.6-3.7,8.1-3.9c3.5-0.1,6.2,0.8,8.1,2.8c1.9,2,2.8,4.7,2.8,7.9v23.3h-3.9
				V92c0-2.5-0.7-4.5-2-5.8c-1.3-1.3-3-2-5.1-1.9c-2.1,0-3.9,0.8-5.5,2.4s-2.5,3.5-2.5,5.8v22.4L112.9,114.8L112.9,114.8z"/>
			<path class="st1" d="M166.8,73.3c-1.7-0.3-2.9,0-3.6,0.8s-1.1,2.1-1.1,3.8v5.6h9v3.2h-9v28.1h-3.9V86.8h-6.6v-3.2h6.6v-5.8
				c0-2.8,0.6-4.8,1.9-6s3.2-1.8,5.8-1.7c2.6,0.1,4.7,0.7,6.4,1.9l-1.1,2.9C169.7,74,168.2,73.6,166.8,73.3z"/>
			<path class="st1" d="M174.8,77.5v-6h4.9v6H174.8z M175.3,114.8V81.7h3.9v33.1H175.3z"/>
			<path class="st1" d="M194.9,116c-2.4,0.1-4.2-0.3-5.3-1.3c-1.1-1-1.7-2.7-1.7-5V86.4h-6.6v-3.2h6.6v-11h3.9v11h8.3v3.2h-8.3v22.7
				c0,1.4,0.2,2.3,0.7,2.9c0.5,0.6,1.3,0.8,2.4,0.8c1.4,0,2.9-0.6,4.5-1.6l0.6,3.1C198.5,115.3,196.8,115.9,194.9,116z"/>
		</g>
	</g>
	<g>
		<path class="st1" d="M106.7,68.9c-9.5,3.4-7.9,9.5-7.9,9.5S105,78.8,106.7,68.9z"/>
		<path class="st1" d="M89.8,70.6c2.2,8.6,7.7,7.3,7.7,7.3S98.5,72.3,89.8,70.6z"/>
	</g>
</g>
<g>
	<path class="st2" d="M92.7,0c-10.4,11.5-3.8,18.6-3.8,18.6S97.6,14.7,92.7,0z"/>
	<path class="st2" d="M71.1,14.5c9.1,10,15.7,4.3,15.7,4.3S84.1,10.6,71.1,14.5z"/>
	<path class="st1" d="M105.5,64.9c-0.8,0-1.5-0.3-2.2-0.8c-1.1-0.9-3.4-1.2-4.2-1.3c-11.6-0.3-16.8-3.3-17-3.4
		c-0.1-0.1-17.4-9.8-13.2-25.2c4.2-15.5,18.3-13.1,18.4-13c0.7,0.1,1.4,0.2,2.1,0.4c0.3-1,0.7-1.8,0.8-1.9c0.1-0.1,0.1-0.2,0.2-0.3
		c2.5-2.6,5.7-4,9.2-3.9c5.8,0,11.1,3.5,14.2,6.8c5.5,5.9,6.7,18.9,2.3,25.8c-6,9.4-6.9,11.9-6.9,12.6c0.1,1.6-0.7,3.2-2.1,3.9
		C106.5,64.8,106,64.9,105.5,64.9z M84.8,24c-3.4,0-10.4,1.3-13.1,11c-3.5,13.1,11.7,21.7,11.8,21.8c0.1,0,4.9,2.8,15.7,3
		c0.4,0,3.9,0.3,5.9,1.9c0.3,0.2,0.3,0.2,0.4,0.1c0.3-0.1,0.5-0.6,0.5-1c-0.1-1.6,1.1-4.7,7.3-14.4c3.7-5.8,2.8-17.2-1.9-22.1
		c-3.3-3.5-8.1-5.9-12.1-5.9c0,0,0,0-0.1,0c-2.7,0-5,1-6.9,2.9c-0.1,0.3-0.3,0.7-0.4,1.1c17.4,5.8,14.9,25.6,14.8,25.8
		c-0.1,0.8-0.9,1.4-1.7,1.3s-1.4-0.9-1.3-1.7c0.1-0.9,2.6-20.5-17.3-23.6C86.6,24.2,85.9,24,84.8,24z"/>
</g>
</svg>
